# 3ds Max Wavefront OBJ Exporter v0.97b - (c)2007 guruware
# File Created: 28.01.2021 15:00:00

mtllib cornerR.mtl

#
# object Line005
#

v  -0.1004 0.0600 2.0996
v  -0.1004 0.0600 1.9971
v  -2.1004 0.0600 1.8821
v  -2.1004 0.0600 2.0996
v  -2.1004 -0.0600 1.8821
v  -2.1004 -0.0600 2.0996
v  -0.1004 -0.0600 1.9971
v  -0.1004 -0.0600 2.0996
v  -0.0398 0.0600 1.4718
v  -2.0003 0.0600 1.0143
v  -2.0003 -0.0600 1.0143
v  -0.0398 -0.0600 1.4718
v  0.1127 0.0600 1.0457
v  -1.6950 0.0600 0.1611
v  -1.6950 -0.0600 0.1611
v  0.1127 -0.0600 1.0457
v  0.3527 0.0600 0.6683
v  -1.2168 0.0600 -0.5905
v  -1.2168 -0.0600 -0.5905
v  0.3527 -0.0600 0.6683
v  0.6683 0.0600 0.3527
v  -0.5905 0.0600 -1.2168
v  -0.5905 -0.0600 -1.2168
v  0.6683 -0.0600 0.3527
v  1.0457 0.0600 0.1127
v  0.1611 0.0600 -1.6950
v  0.1611 -0.0600 -1.6950
v  1.0457 -0.0600 0.1127
v  1.4718 0.0600 -0.0398
v  1.0143 0.0600 -2.0002
v  1.0143 -0.0600 -2.0002
v  1.4718 -0.0600 -0.0398
v  1.9971 0.0600 -0.1004
v  1.8821 0.0600 -2.1004
v  1.8821 -0.0600 -2.1004
v  1.9971 -0.0600 -0.1004
v  2.0996 0.0600 -0.1004
v  2.0996 0.0600 -2.1004
v  2.0996 -0.0600 -2.1004
v  2.0996 -0.0600 -0.1004
# 40 vertices

vn 0.5774 0.5774 0.5773
vn 0.6926 0.7203 0.0398
vn -0.7184 0.6944 -0.0413
vn -0.5774 0.5774 0.5774
vn -0.7184 -0.6944 -0.0413
vn -0.5774 -0.5774 0.5774
vn 0.6926 -0.7203 0.0398
vn 0.5774 -0.5774 0.5773
vn 0.6617 0.7337 0.1544
vn -0.7119 0.6823 -0.1661
vn -0.7119 -0.6823 -0.1661
vn 0.6617 -0.7337 0.1544
vn 0.6110 0.7330 0.2990
vn -0.6562 0.6829 -0.3211
vn -0.6562 -0.6829 -0.3211
vn 0.6110 -0.7330 0.2990
vn 0.5310 0.7325 0.4259
vn -0.5696 0.6833 -0.4568
vn -0.5696 -0.6833 -0.4568
vn 0.5310 -0.7325 0.4259
vn 0.4259 0.7325 0.5310
vn -0.4568 0.6833 -0.5696
vn -0.4568 -0.6833 -0.5696
vn 0.4259 -0.7325 0.5310
vn 0.2990 0.7330 0.6110
vn -0.3211 0.6829 -0.6562
vn -0.3211 -0.6829 -0.6562
vn 0.2990 -0.7330 0.6110
vn 0.1544 0.7337 0.6617
vn -0.1661 0.6823 -0.7119
vn -0.1661 -0.6823 -0.7119
vn 0.1544 -0.7337 0.6617
vn 0.0398 0.7203 0.6926
vn -0.0413 0.6944 -0.7184
vn -0.0413 -0.6944 -0.7184
vn 0.0398 -0.7203 0.6926
vn 0.5774 0.5774 0.5774
vn 0.5774 0.5774 -0.5774
vn 0.5774 -0.5774 -0.5774
vn 0.5774 -0.5774 0.5774
# 40 vertex normals

o Line005
g Line005
usemtl wire_255255255
s 1
f 1//1 2//2 3//3 4//4 
s 2
f 4//4 3//3 5//5 6//6 
s 1
f 6//6 5//5 7//7 8//8 
s 2
f 8//8 7//7 2//2 1//1 
s 1
f 2//2 9//9 10//10 3//3 
s 2
f 3//3 10//10 11//11 5//5 
s 1
f 5//5 11//11 12//12 7//7 
s 2
f 7//7 12//12 9//9 2//2 
s 1
f 9//9 13//13 14//14 10//10 
s 2
f 10//10 14//14 15//15 11//11 
s 1
f 11//11 15//15 16//16 12//12 
s 2
f 12//12 16//16 13//13 9//9 
s 1
f 13//13 17//17 18//18 14//14 
s 2
f 14//14 18//18 19//19 15//15 
s 1
f 15//15 19//19 20//20 16//16 
s 2
f 16//16 20//20 17//17 13//13 
s 1
f 17//17 21//21 22//22 18//18 
s 2
f 18//18 22//22 23//23 19//19 
s 1
f 19//19 23//23 24//24 20//20 
s 2
f 20//20 24//24 21//21 17//17 
s 1
f 21//21 25//25 26//26 22//22 
s 2
f 22//22 26//26 27//27 23//23 
s 1
f 23//23 27//27 28//28 24//24 
s 2
f 24//24 28//28 25//25 21//21 
s 1
f 25//25 29//29 30//30 26//26 
s 2
f 26//26 30//30 31//31 27//27 
s 1
f 27//27 31//31 32//32 28//28 
s 2
f 28//28 32//32 29//29 25//25 
s 1
f 29//29 33//33 34//34 30//30 
s 2
f 30//30 34//34 35//35 31//31 
s 1
f 31//31 35//35 36//36 32//32 
s 2
f 32//32 36//36 33//33 29//29 
s 1
f 33//33 37//37 38//38 34//34 
s 2
f 34//34 38//38 39//39 35//35 
s 1
f 35//35 39//39 40//40 36//36 
s 2
f 36//36 40//40 37//37 33//33 
s 4
f 4//4 6//6 8//8 1//1 
f 39//39 38//38 37//37 40//40 
# 38 polygons

#
# object Shape002
#

v  -0.0940 8.0600 2.0996
v  -0.0940 8.0600 1.9975
v  -0.1060 8.0600 1.9968
v  -0.1060 8.0600 2.0996
v  -0.1060 0.0600 1.9968
v  -0.1060 0.0600 2.0996
v  -0.0940 0.0600 1.9975
v  -0.0940 0.0600 2.0996
v  -0.0335 8.0600 1.4732
v  -0.0453 8.0600 1.4704
v  -0.0453 0.0600 1.4704
v  -0.0335 0.0600 1.4732
v  0.1185 8.0600 1.0483
v  0.1077 8.0600 1.0430
v  0.1077 0.0600 1.0430
v  0.1185 0.0600 1.0483
v  0.3578 8.0600 0.6721
v  0.3484 8.0600 0.6645
v  0.3484 0.0600 0.6645
v  0.3578 0.0600 0.6721
v  0.6725 8.0600 0.3575
v  0.6649 8.0600 0.3480
v  0.6649 0.0600 0.3480
v  0.6725 0.0600 0.3575
v  1.0487 8.0600 0.1181
v  1.0434 8.0600 0.1073
v  1.0434 0.0600 0.1073
v  1.0487 0.0600 0.1181
v  1.4735 8.0600 -0.0339
v  1.4708 8.0600 -0.0456
v  1.4708 0.0600 -0.0456
v  1.4735 0.0600 -0.0339
v  1.9978 8.0600 -0.0944
v  1.9972 8.0600 -0.1064
v  1.9972 0.0600 -0.1064
v  1.9978 0.0600 -0.0944
v  2.1000 8.0600 -0.0944
v  2.1000 8.0600 -0.1064
v  2.1000 0.0600 -0.1064
v  2.1000 0.0600 -0.0944
v  2.1000 8.0600 -2.1064
v  1.8822 8.0600 -2.1064
v  1.8828 8.0600 -2.0944
v  2.1000 8.0600 -2.0944
v  1.8828 0.0600 -2.0944
v  2.1000 0.0600 -2.0944
v  1.8822 0.0600 -2.1064
v  2.1000 0.0600 -2.1064
v  1.0133 8.0600 -2.0061
v  1.0161 8.0600 -1.9944
v  1.0161 0.0600 -1.9944
v  1.0133 0.0600 -2.0061
v  0.1588 8.0600 -1.7004
v  0.1641 8.0600 -1.6895
v  0.1641 0.0600 -1.6895
v  0.1588 0.0600 -1.7004
v  -0.5939 8.0600 -1.2215
v  -0.5864 8.0600 -1.2121
v  -0.5864 0.0600 -1.2121
v  -0.5939 0.0600 -1.2215
v  -1.2212 8.0600 -0.5943
v  -1.2117 8.0600 -0.5868
v  -1.2117 0.0600 -0.5868
v  -1.2212 0.0600 -0.5943
v  -1.7000 8.0600 0.1584
v  -1.6892 8.0600 0.1637
v  -1.6892 0.0600 0.1637
v  -1.7000 0.0600 0.1584
v  -2.0058 8.0600 1.0130
v  -1.9940 8.0600 1.0157
v  -1.9940 0.0600 1.0157
v  -2.0058 0.0600 1.0130
v  -2.1060 8.0600 1.8818
v  -2.0940 8.0600 1.8825
v  -2.0940 0.0600 1.8825
v  -2.1060 0.0600 1.8818
v  -2.1060 8.0600 2.0996
v  -2.0940 8.0600 2.0996
v  -2.0940 0.0600 2.0996
v  -2.1060 0.0600 2.0996
# 80 vertices

vn 0.5774 0.5774 0.5774
vn 0.6926 0.7203 0.0398
vn -0.7184 0.6944 -0.0413
vn -0.5774 0.5774 0.5774
vn -0.7184 -0.6944 -0.0413
vn -0.5774 -0.5774 0.5774
vn 0.6926 -0.7203 0.0398
vn 0.5774 -0.5774 0.5774
vn 0.6617 0.7337 0.1544
vn -0.7119 0.6823 -0.1661
vn -0.7119 -0.6823 -0.1661
vn 0.6617 -0.7337 0.1544
vn 0.6110 0.7330 0.2990
vn -0.6562 0.6829 -0.3211
vn -0.6562 -0.6829 -0.3211
vn 0.6110 -0.7330 0.2990
vn 0.5310 0.7326 0.4259
vn -0.5695 0.6834 -0.4568
vn -0.5696 -0.6833 -0.4568
vn 0.5310 -0.7325 0.4259
vn 0.4259 0.7325 0.5311
vn -0.4568 0.6833 -0.5696
vn -0.4568 -0.6833 -0.5696
vn 0.4259 -0.7325 0.5310
vn 0.2990 0.7330 0.6110
vn -0.3211 0.6829 -0.6562
vn -0.3211 -0.6829 -0.6562
vn 0.2990 -0.7330 0.6110
vn 0.1544 0.7337 0.6617
vn -0.1661 0.6823 -0.7119
vn -0.1661 -0.6823 -0.7119
vn 0.1544 -0.7337 0.6617
vn 0.0398 0.7203 0.6926
vn -0.0413 0.6944 -0.7184
vn -0.0413 -0.6944 -0.7184
vn 0.0398 -0.7203 0.6926
vn 0.5774 0.5774 -0.5774
vn 0.5774 -0.5774 -0.5774
vn -0.1661 -0.6823 -0.7120
vn -0.3211 -0.6829 -0.6561
vn 0.4259 0.7325 0.5310
vn -0.5696 0.6833 -0.4568
vn 0.5310 0.7325 0.4259
vn 0.5311 -0.7325 0.4259
vn -0.6561 0.6829 -0.3211
vn 0.6109 -0.7331 0.2990
vn -0.7120 0.6823 -0.1661
# 47 vertex normals

o Shape002
g Shape002
usemtl wire_255255255
s 1
f 41//41 42//42 43//43 44//44 
s 2
f 44//44 43//43 45//45 46//46 
s 1
f 46//46 45//45 47//47 48//48 
s 2
f 48//48 47//47 42//42 41//41 
s 1
f 42//42 49//49 50//50 43//43 
s 2
f 43//43 50//50 51//51 45//45 
s 1
f 45//45 51//51 52//52 47//47 
s 2
f 47//47 52//52 49//49 42//42 
s 1
f 49//49 53//53 54//54 50//50 
s 2
f 50//50 54//54 55//55 51//51 
s 1
f 51//51 55//55 56//56 52//52 
s 2
f 52//52 56//56 53//53 49//49 
s 1
f 53//53 57//57 58//58 54//54 
s 2
f 54//54 58//58 59//59 55//55 
s 1
f 55//55 59//59 60//60 56//56 
s 2
f 56//56 60//60 57//57 53//53 
s 1
f 57//57 61//61 62//62 58//58 
s 2
f 58//58 62//62 63//63 59//59 
s 1
f 59//59 63//63 64//64 60//60 
s 2
f 60//60 64//64 61//61 57//57 
s 1
f 61//61 65//65 66//66 62//62 
s 2
f 62//62 66//66 67//67 63//63 
s 1
f 63//63 67//67 68//68 64//64 
s 2
f 64//64 68//68 65//65 61//61 
s 1
f 65//65 69//69 70//70 66//66 
s 2
f 66//66 70//70 71//71 67//67 
s 1
f 67//67 71//71 72//72 68//68 
s 2
f 68//68 72//72 69//69 65//65 
s 1
f 69//69 73//73 74//74 70//70 
s 2
f 70//70 74//74 75//75 71//71 
s 1
f 71//71 75//75 76//76 72//72 
s 2
f 72//72 76//76 73//73 69//69 
s 1
f 73//73 77//41 78//77 74//74 
s 2
f 74//74 78//77 79//78 75//75 
s 1
f 75//75 79//78 80//48 76//76 
s 2
f 76//76 80//48 77//41 73//73 
s 4
f 44//44 46//46 48//48 41//41 
f 79//78 78//77 77//41 80//48 
s 1
f 81//77 82//74 83//73 84//41 
s 2
f 84//41 83//73 85//76 86//48 
s 1
f 86//48 85//76 87//75 88//78 
s 2
f 88//78 87//75 82//74 81//77 
s 1
f 82//74 89//70 90//69 83//73 
s 2
f 83//73 90//69 91//72 85//76 
s 1
f 85//76 91//72 92//79 87//75 
s 2
f 87//75 92//79 89//70 82//74 
s 1
f 89//70 93//66 94//65 90//69 
s 2
f 90//69 94//65 95//68 91//72 
s 1
f 91//72 95//68 96//80 92//79 
s 2
f 92//79 96//80 93//66 89//70 
s 1
f 93//66 97//62 98//81 94//65 
s 2
f 94//65 98//81 99//64 95//68 
s 1
f 95//68 99//64 100//63 96//80 
s 2
f 96//80 100//63 97//62 93//66 
s 1
f 97//62 101//82 102//83 98//81 
s 2
f 98//81 102//83 103//84 99//64 
s 1
f 99//64 103//84 104//59 100//63 
s 2
f 100//63 104//59 101//82 97//62 
s 1
f 101//82 105//85 106//53 102//83 
s 2
f 102//83 106//53 107//86 103//84 
s 1
f 103//84 107//86 108//55 104//59 
s 2
f 104//59 108//55 105//85 101//82 
s 1
f 105//85 109//87 110//49 106//53 
s 2
f 106//53 110//49 111//52 107//86 
s 1
f 107//86 111//52 112//51 108//55 
s 2
f 108//55 112//51 109//87 105//85 
s 1
f 109//87 113//43 114//42 110//49 
s 2
f 110//49 114//42 115//47 111//52 
s 1
f 111//52 115//47 116//45 112//51 
s 2
f 112//51 116//45 113//43 109//87 
s 1
f 113//43 117//44 118//41 114//42 
s 2
f 114//42 118//41 119//48 115//47 
s 1
f 115//47 119//48 120//46 116//45 
s 2
f 116//45 120//46 117//44 113//43 
s 4
f 84//41 86//48 88//78 81//77 
f 119//48 118//41 117//44 120//46 
# 76 polygons

